<?xml version="1.0" encoding="UTF-8" standalone="no"?>
<svg
   width="1024"
   height="1024"
   viewBox="0 0 1024 1024"
   version="1.1"
   id="svg7"
   sodipodi:docname="icon.svg"
   inkscape:version="1.4.2 (ebf0e94, 2025-05-08)"
   inkscape:export-filename="icon.png"
   inkscape:export-xdpi="96"
   inkscape:export-ydpi="96"
   xmlns:inkscape="http://www.inkscape.org/namespaces/inkscape"
   xmlns:sodipodi="http://sodipodi.sourceforge.net/DTD/sodipodi-0.dtd"
   xmlns="http://www.w3.org/2000/svg"
   xmlns:svg="http://www.w3.org/2000/svg">
  <defs
     id="defs7" />
  <sodipodi:namedview
     id="namedview7"
     pagecolor="#ffffff"
     bordercolor="#666666"
     borderopacity="1.0"
     inkscape:showpageshadow="2"
     inkscape:pageopacity="0.0"
     inkscape:pagecheckerboard="0"
     inkscape:deskcolor="#d1d1d1"
     inkscape:zoom="1.2900391"
     inkscape:cx="512"
     inkscape:cy="426.73126"
     inkscape:window-width="2743"
     inkscape:window-height="1514"
     inkscape:window-x="-9"
     inkscape:window-y="-9"
     inkscape:window-maximized="1"
     inkscape:current-layer="g5" />
  <!-- Main messaging window frame: 15% margin sides, 15% top, 30% bottom -->
  <rect
     x="71.166138"
     y="71.166153"
     width="889.36694"
     height="810.03265"
     rx="78.808289"
     ry="74.13974"
     fill="#888888"
     stroke="#8da5b8"
     stroke-width="14.3323"
     id="rect1"
     style="stroke-width:16;stroke-dasharray:none" />
  <!-- Photo icons (generic image placeholders) -->
  <g
     id="g8"
     transform="translate(-260)">
    <rect
       x="374.37592"
       y="142.70879"
       width="282.94736"
       height="202.10527"
       rx="15.157895"
       ry="15.157895"
       fill="#e6e6e6"
       stroke="#cccccc"
       stroke-width="5.05263"
       id="rect2" />
    <circle
       cx="455.21802"
       cy="203.34036"
       r="20.210526"
       fill="#999999"
       id="circle2"
       style="stroke-width:1.26316" />
    <polygon
       points="96,64 144,96 144,128 48,128 48,96 "
       fill="#999999"
       id="polygon2"
       transform="matrix(1.2631579,0,0,1.2631579,374.37592,142.70879)" />
  </g>
  <g
     id="g9"
     transform="translate(-260)">
    <rect
       x="374.37592"
       y="375.12985"
       width="282.94736"
       height="202.10527"
       rx="15.157895"
       ry="15.157895"
       fill="#e6e6e6"
       stroke="#cccccc"
       stroke-width="5.05263"
       id="rect3" />
    <circle
       cx="455.21802"
       cy="435.76141"
       r="20.210526"
       fill="#999999"
       id="circle3"
       style="stroke-width:1.26316" />
    <polygon
       points="96,248 144,280 144,312 48,312 48,280 "
       fill="#999999"
       id="polygon3"
       transform="matrix(1.2631579,0,0,1.2631579,374.37592,142.70879)" />
  </g>
  <g
     id="g10"
     transform="translate(240)">
    <rect
       x="374.37592"
       y="607.5509"
       width="282.94736"
       height="202.10527"
       rx="15.157895"
       ry="15.157895"
       fill="#e6e6e6"
       stroke="#cccccc"
       stroke-width="5.05263"
       id="rect4" />
    <circle
       cx="455.21802"
       cy="668.1825"
       r="20.210526"
       fill="#999999"
       id="circle4"
       style="stroke-width:1.26316" />
    <polygon
       points="48,496 48,464 96,432 144,464 144,496 "
       fill="#999999"
       id="polygon4"
       transform="matrix(1.2631579,0,0,1.2631579,374.37592,142.70879)" />
  </g>
  <!-- Mail envelope icon with circular background (top left) -->
  <g
     transform="matrix(1.7297297,0,0,1.7297297,35.459459,35.459459)"
     id="g5">
    <circle
       cx="72"
       cy="72"
       r="72"
       fill="#ffffff"
       stroke="#dddddd"
       stroke-width="4"
       id="circle5"
       style="stroke:#8da5b8;stroke-width:9.25000016;stroke-dasharray:none" />
    <rect
       x="28"
       y="44"
       width="88"
       height="56"
       rx="8"
       ry="8"
       fill="#ffffff"
       stroke="#666666"
       stroke-width="6"
       id="rect5" />
    <path
       id="polygon5"
       style="fill:none;stroke:#666666;stroke-width:6"
       d="M 30.3125,46.3125 72,72 113.6875,46.3125"
       sodipodi:nodetypes="ccc" />
  </g>
  <!-- Pinterest P logo with circular background (top right) -->
  <g
     transform="matrix(1.7297297,0,0,1.7297297,739.45946,35.459459)"
     id="g6">
    <circle
       cx="72"
       cy="72"
       r="72"
       fill="#ffffff"
       stroke="#dddddd"
       stroke-width="4"
       id="circle6"
       style="stroke-width:9.25000016;stroke-dasharray:none;stroke:#8da5b8" />
    <text
       x="72"
       y="102"
       text-anchor="middle"
       font-family="serif"
       font-size="80px"
       font-style="italic"
       font-weight="bold"
       fill="#e60023"
       id="text6">P</text>
  </g>
  <!-- Download arrow with circular background (positioned above bottom border) -->
  <g
     transform="matrix(1.9459459,0,0,1.9459459,371.8919,707.89189)"
     id="g7">
    <circle
       cx="72"
       cy="72"
       r="72"
       fill="#ffffff"
       stroke="#dddddd"
       stroke-width="4"
       id="circle7"
       style="stroke-width:8.22222242;stroke-dasharray:none;stroke:#8da5b8" />
    <path
       d="m 72,36 v 72 M 48,84 72,108 96,84"
       fill="none"
       stroke="#4a90e2"
       stroke-width="12"
       stroke-linecap="round"
       stroke-linejoin="round"
       id="path7" />
  </g>
</svg>
