<?xml version="1.0" encoding="utf-8" ?><svg xmlns="http://www.w3.org/2000/svg" xmlns:xlink="http://www.w3.org/1999/xlink" width="1024" height="1024" viewBox="0 0 1024 1024"><path fill="#E3292C" transform="scale(2 2)" d="M249.44 55.0497C301.008 51.44 345.712 90.378 349.212 141.954C352.713 193.529 313.68 238.15 262.098 241.542C210.669 244.923 166.21 206.033 162.72 154.611C159.23 103.19 198.026 58.6486 249.44 55.0497Z"/><path fill="#F44E4D" transform="scale(2 2)" d="M250.502 68.8664C294.446 65.8724 332.465 99.1397 335.331 143.092C338.196 187.045 304.817 224.967 260.856 227.703C217.077 230.428 179.347 197.218 176.493 153.447C173.64 109.676 206.739 71.8481 250.502 68.8664Z"/><path fill="#F2F1F1" transform="scale(2 2)" d="M228.983 101.551C237.298 101.093 263.069 100.918 269.482 102.426C303.639 110.458 305.734 163.089 261.91 167.032L239.52 167.032C239.528 171.681 240.233 187.931 238.901 191.631C236.809 197.436 226.968 197.014 224.963 191.259C223.77 187.835 224.3 117.288 224.537 108.741C224.637 105.124 225.13 102.845 228.983 101.551Z"/><path fill="#F44E4D" transform="scale(2 2)" d="M239.52 116.795L253.159 116.778C260.761 116.762 268.148 115.898 274.147 121.498C281.765 128.61 281.668 139.266 274.666 146.782C266.964 153.98 250.17 151.422 239.52 151.569L239.52 116.795Z"/><path fill="#B8D4ED" transform="scale(2 2)" d="M106.168 278.291L106.469 278.983C107.278 278.43 108.464 276.239 109.36 275.298L149.013 233.763C155.917 226.509 163.76 218.038 171.001 211.154C195.967 245.613 241.433 261.655 282.591 251.11C299.549 246.825 311.639 238.505 325.375 228.361C325.521 228.305 325.667 228.25 325.813 228.194C329.711 231.588 333.241 235.506 337.034 239.059C352.723 253.75 369.711 271.208 384.413 286.765C391.106 293.847 399.716 300.828 405.722 308.312C405.942 313.486 407.468 324.432 400.119 324.776C390.216 325.24 379.942 325.04 370.011 325.041L317.814 325.034C292.61 273.684 224.466 268.711 197.382 318.841C196.308 320.829 195.295 323.039 194.167 325.034C175.066 324.709 155.038 325.037 135.836 325.014L121.573 325.073C103.391 325.176 106.156 319.196 106.159 304.04L106.168 278.291Z"/><path fill="#6B90BC" transform="scale(2 2)" d="M364.104 138.742L387.472 138.746C393.86 138.724 399.795 137.671 405.983 140.159C420.902 146.158 418.745 160.214 418.742 173.325L418.752 316.703C418.616 340.674 397.106 337.725 379.913 337.703L341.142 337.697C335.159 337.695 327.323 337.425 321.561 337.701C320.442 333.452 319.322 329.166 317.814 325.034L370.011 325.041C379.942 325.04 390.216 325.24 400.119 324.776C407.468 324.432 405.942 313.486 405.722 308.312L405.733 175.371C405.733 169.457 405.838 163.509 405.437 157.609C404.929 150.149 394.258 151.542 389.467 151.547L370.232 151.569L370.232 151.569L361.255 151.569C360.966 147.255 361.077 143.083 360.55 138.742L364.104 138.742Z"/><path fill="#6485B3" transform="scale(2 2)" d="M360.55 138.742L364.104 138.742C364.902 138.827 365.331 138.885 366.148 138.848C366.135 140.74 371.171 149.65 370.232 151.569L361.255 151.569C360.966 147.255 361.077 143.083 360.55 138.742Z"/><path fill="#6B90BC" transform="scale(2 2)" d="M190.385 337.701C185.751 338.07 179.35 337.717 174.606 337.712L124.194 337.714C108.652 337.739 93.7429 335.497 93.755 315.854L93.7551 174.291C93.7456 142.915 96.8475 138.738 128.79 138.733L150.334 138.742C150.547 142.318 150.342 147.219 150.334 150.932L127.222 150.921C106.861 150.903 106.131 150.454 106.157 172.94L106.168 278.291L106.159 304.04C106.156 319.196 103.391 325.176 121.573 325.073L135.836 325.014C155.038 325.037 175.066 324.709 194.167 325.034C192.34 329.066 191.352 333.401 190.385 337.701Z"/><path fill="#F44E4D" transform="scale(2 2)" d="M254.31 315.301C266.081 314.579 263.477 326.346 263.479 334.566L263.473 362.124C269.481 357.594 275.857 345.28 283.814 350.65C286.592 352.525 287.458 357.859 285.323 360.463C280.899 365.534 261.469 386.531 255.872 387.464C248.894 386.278 231.899 366.531 226.283 360.608C220.066 354.244 229.613 345.538 235.887 350.423C240.451 353.977 245.038 358.937 249.257 362.952L249.245 336.357C249.243 329.405 246.934 318.093 254.31 315.301Z"/><path fill="#F2F1F1" transform="scale(2 2)" d="M194.167 378.384C194.603 378.37 196.831 383.216 197.232 383.954C214.71 416.085 246.052 423.103 279.118 417.022C273.085 423.218 266.927 430.332 260.892 436.734C255.167 442.946 249.3 449.298 243.567 455.518C238.442 461.079 236.303 453.667 235.532 449.579C234.027 441.606 232.679 433.573 231.189 425.597C229.715 417.706 200.624 408.54 194.167 378.384Z"/><path fill="#F2F1F1" transform="scale(2 2)" d="M370.232 151.569L370.232 151.569C370.278 186.669 364.193 211.613 338.234 237.888C337.888 238.238 337.308 238.693 337.034 239.059C333.241 235.506 329.711 231.588 325.813 228.194C331.487 220.99 338.315 214.892 343.637 206.979C353.508 192.3 361.34 169.212 361.255 151.569L370.232 151.569Z"/></svg>